<?xml version="1.0" encoding="UTF-8"?>
<svg xmlns="http://www.w3.org/2000/svg" xmlns:xlink="http://www.w3.org/1999/xlink" width="20px" height="20px" viewBox="0 0 20 20" version="1.1">
<g id="surface1">
<path style="fill-rule:evenodd;fill:rgb(100%,100%,100%);fill-opacity:1;stroke-width:1.5;stroke-linecap:round;stroke-linejoin:round;stroke:rgb(0%,0%,0%);stroke-opacity:1;stroke-miterlimit:4;" d="M 21.999023 10.000781 C 32.501953 11.002734 38.496094 17.998828 38.003906 38.995898 L 15.00293 38.995898 C 15.00293 29.995898 24.996094 32.500781 23.000977 17.998828 " transform="matrix(0.444444,0,0,0.444444,0,0.133333)"/>
<path style="fill-rule:evenodd;fill:rgb(100%,100%,100%);fill-opacity:1;stroke-width:1.5;stroke-linecap:round;stroke-linejoin:round;stroke:rgb(0%,0%,0%);stroke-opacity:1;stroke-miterlimit:4;" d="M 24.00293 17.998828 C 24.380859 20.908008 18.448242 25.372852 15.996094 26.998828 C 12.999023 29.002734 13.183594 31.340625 11.003906 30.997852 C 9.958008 30.057422 12.410156 27.956836 11.003906 28.000781 C 10.001953 28.000781 11.188477 29.23125 10.001953 29.995898 C 9 29.995898 5.994141 30.997852 6.00293 25.996875 C 6.00293 24.001758 11.99707 13.999805 11.99707 13.999805 C 11.99707 13.999805 13.886719 12.101367 14.000977 10.501758 C 13.271484 9.508594 13.5 8.497852 13.5 7.495898 C 14.501953 6.502734 16.49707 10.000781 16.49707 10.000781 L 18.500977 10.000781 C 18.500977 10.000781 19.283203 8.005664 20.99707 7.003711 C 21.999023 7.003711 21.999023 10.000781 21.999023 10.000781 " transform="matrix(0.444444,0,0,0.444444,0,0.133333)"/>
<path style="fill-rule:evenodd;fill:rgb(0%,0%,0%);fill-opacity:1;stroke-width:1.5;stroke-linecap:round;stroke-linejoin:round;stroke:rgb(0%,0%,0%);stroke-opacity:1;stroke-miterlimit:4;" d="M 9.500977 25.495898 C 9.500977 25.777148 9.272461 25.996875 9 25.996875 C 8.727539 25.996875 8.499023 25.777148 8.499023 25.495898 C 8.499023 25.223437 8.727539 25.003711 9 25.003711 C 9.272461 25.003711 9.500977 25.223437 9.500977 25.495898 Z M 9.500977 25.495898 " transform="matrix(0.444444,0,0,0.444444,0,0.133333)"/>
<path style="fill-rule:evenodd;fill:rgb(0%,0%,0%);fill-opacity:1;stroke-width:1.5;stroke-linecap:round;stroke-linejoin:round;stroke:rgb(0%,0%,0%);stroke-opacity:1;stroke-miterlimit:4;" d="M 14.999083 15.499177 C 15.001702 16.329885 14.777922 16.996987 14.49448 16.998252 C 14.223044 17.002735 13.997648 16.331098 14.00264 15.495995 C 14.004416 14.672898 14.2238 13.998185 14.499631 14.001314 C 14.775461 14.004443 15.000858 14.67608 14.999083 15.499177 Z M 14.999083 15.499177 " transform="matrix(0.384889,0.222222,-0.222222,0.384889,4.308,-2.165778)"/>
</g>
</svg>
